<svg width="59" height="58" viewBox="0 0 59 58" fill="none" xmlns="http://www.w3.org/2000/svg">
<path fill-rule="evenodd" clip-rule="evenodd" d="M29.0092 1.00002C40.6725 0.985927 52.3284 7.02055 55.9403 19.086C59.5587 31.1734 53.5011 43.6553 43.9878 51.0362C34.7585 58.1967 22.5234 59.2978 13.2472 52.2093C3.50336 44.7635 -1.51932 31.435 2.26169 19.1509C5.95068 7.16572 17.3919 1.01407 29.0092 1.00002Z" fill="white" stroke="#FF6C7E" stroke-width="2"/>
<path d="M26.973 35.113C26.6057 35.113 26.364 34.997 26.248 34.765C26.1513 34.5137 26.103 34.2333 26.103 33.924C26.103 32.996 26.2673 32.2323 26.596 31.633C26.944 31.0143 27.3887 30.4923 27.93 30.067C28.4713 29.6223 29.0417 29.2163 29.641 28.849C30.2403 28.4623 30.8107 28.0563 31.352 27.631C31.8933 27.1863 32.3283 26.645 32.657 26.007C33.005 25.369 33.179 24.5763 33.179 23.629C33.179 22.6043 32.8697 21.7343 32.251 21.019C31.6323 20.3037 30.8107 19.946 29.786 19.946C29.206 19.946 28.7033 20.062 28.278 20.294C27.8527 20.5067 27.4757 20.758 27.147 21.048C26.8183 21.338 26.4897 21.599 26.161 21.831C25.8323 22.0437 25.465 22.15 25.059 22.15C24.769 22.15 24.5757 22.0823 24.479 21.947C24.3823 21.7923 24.334 21.57 24.334 21.28C24.334 20.6227 24.5177 20.0717 24.885 19.627C25.2523 19.163 25.726 18.7957 26.306 18.525C26.886 18.2543 27.495 18.061 28.133 17.945C28.7903 17.8097 29.3897 17.742 29.931 17.742C31.0717 17.742 32.048 18.0223 32.86 18.583C33.672 19.1437 34.2907 19.8783 34.716 20.787C35.1607 21.6957 35.383 22.6913 35.383 23.774C35.383 25.0307 35.1123 26.2197 34.571 27.341C34.049 28.443 33.237 29.371 32.135 30.125C31.613 30.473 31.0813 30.8017 30.54 31.111C30.018 31.401 29.5733 31.807 29.206 32.329C28.9547 32.619 28.7517 32.9863 28.597 33.431C28.4617 33.8563 28.278 34.243 28.046 34.591C27.8333 34.939 27.4757 35.113 26.973 35.113ZM26.625 41.029C26.1803 41.029 25.842 40.884 25.61 40.594C25.3973 40.304 25.291 39.9753 25.291 39.608C25.291 39.1247 25.4457 38.6703 25.755 38.245C26.0837 37.8197 26.5283 37.607 27.089 37.607C27.5337 37.607 27.8623 37.752 28.075 38.042C28.2877 38.3127 28.394 38.6413 28.394 39.028C28.394 39.5113 28.2393 39.9657 27.93 40.391C27.6207 40.8163 27.1857 41.029 26.625 41.029Z" fill="#FF6C7E"/>
</svg>
